{
	"asset":{
		"version":"2.0",
		"generator":"Created using the official Cinema 4D glTF Exporter. Previous Build: 1.000x279138."
	},
	"scenes":[{
		"nodes":[0,
		2]
	}],
	"nodes":[{
		"name":"Disc",
		"translation":[0,
		0,
		0],
		"children":[1],
		"rotation":[0,
		0,
		0,
		-1],
		"scale":[1,
		1,
		-1]
	},
	{
		"name":"Disc",
		"mesh":0
	},
	{
		"name":"空白.2",
		"translation":[0,
		0,
		0],
		"children":[3,
		5,
		7,
		9,
		11,
		13],
		"rotation":[0,
		0,
		0,
		-1],
		"scale":[1,
		1,
		-1]
	},
	{
		"name":"Polygon",
		"translation":[0,
		0,
		0],
		"children":[4],
		"rotation":[-0.354,
		0.612,
		0.612,
		0.354],
		"scale":[1,
		1,
		1]
	},
	{
		"name":"Polygon",
		"mesh":1
	},
	{
		"name":"Polygon_1",
		"translation":[0,
		0,
		0],
		"children":[6],
		"rotation":[-0.183,
		0.683,
		0.683,
		0.183],
		"scale":[1,
		1,
		1]
	},
	{
		"name":"Polygon_1",
		"mesh":2
	},
	{
		"name":"Polygon_2",
		"translation":[0,
		0,
		0],
		"children":[8],
		"rotation":[0,
		0.707,
		0.707,
		0],
		"scale":[1,
		1,
		1]
	},
	{
		"name":"Polygon_2",
		"mesh":3
	},
	{
		"name":"Polygon_3",
		"translation":[0,
		0,
		0],
		"children":[10],
		"rotation":[0.183,
		0.683,
		0.683,
		-0.183],
		"scale":[1,
		1,
		1]
	},
	{
		"name":"Polygon_3",
		"mesh":4
	},
	{
		"name":"Polygon_4",
		"translation":[0,
		0,
		0],
		"children":[12],
		"rotation":[0.354,
		0.612,
		0.612,
		-0.354],
		"scale":[1,
		1,
		1]
	},
	{
		"name":"Polygon_4",
		"mesh":5
	},
	{
		"name":"Polygon_5",
		"translation":[0,
		0,
		0],
		"children":[14],
		"rotation":[0.5,
		0.5,
		0.5,
		-0.5],
		"scale":[1,
		1,
		1]
	},
	{
		"name":"Polygon_5",
		"mesh":6
	}],
	"meshes":[{
		"primitives":[{
			"attributes":{
				"POSITION":1,
				"NORMAL":2,
				"TEXCOORD_0":3
			},
			"indices":0,
			"material":0
		}]
	},
	{
		"primitives":[{
			"attributes":{
				"POSITION":5,
				"NORMAL":6,
				"TEXCOORD_0":7
			},
			"indices":4,
			"material":1
		}]
	},
	{
		"primitives":[{
			"attributes":{
				"POSITION":9,
				"NORMAL":10,
				"TEXCOORD_0":11
			},
			"indices":8,
			"material":2
		}]
	},
	{
		"primitives":[{
			"attributes":{
				"POSITION":13,
				"NORMAL":14,
				"TEXCOORD_0":15
			},
			"indices":12,
			"material":3
		}]
	},
	{
		"primitives":[{
			"attributes":{
				"POSITION":17,
				"NORMAL":18,
				"TEXCOORD_0":19
			},
			"indices":16,
			"material":4
		}]
	},
	{
		"primitives":[{
			"attributes":{
				"POSITION":21,
				"NORMAL":22,
				"TEXCOORD_0":23
			},
			"indices":20,
			"material":5
		}]
	},
	{
		"primitives":[{
			"attributes":{
				"POSITION":25,
				"NORMAL":26,
				"TEXCOORD_0":27
			},
			"indices":24,
			"material":6
		}]
	}],
	"accessors":[{
		"bufferView":0,
		"type":"SCALAR",
		"componentType":5123,
		"count":324,
		"byteOffset":0,
		"min":[0],
		"max":[130]
	},
	{
		"bufferView":1,
		"type":"VEC3",
		"componentType":5126,
		"count":131,
		"byteOffset":0,
		"min":[-22.84,
		0,
		-22.84],
		"max":[22.84,
		0,
		22.84]
	},
	{
		"bufferView":1,
		"type":"VEC3",
		"componentType":5126,
		"count":131,
		"byteOffset":12,
		"min":[0,
		0,
		0],
		"max":[0.349,
		1,
		0]
	},
	{
		"bufferView":1,
		"type":"VEC2",
		"componentType":5126,
		"count":131,
		"byteOffset":24,
		"min":[0,
		0],
		"max":[1,
		1]
	},
	{
		"bufferView":2,
		"type":"SCALAR",
		"componentType":5123,
		"count":48,
		"byteOffset":0,
		"min":[0],
		"max":[17]
	},
	{
		"bufferView":3,
		"type":"VEC3",
		"componentType":5126,
		"count":18,
		"byteOffset":0,
		"min":[-9.979,
		0,
		0],
		"max":[9.979,
		0,
		373.134]
	},
	{
		"bufferView":3,
		"type":"VEC3",
		"componentType":5126,
		"count":18,
		"byteOffset":12,
		"min":[0,
		0,
		0],
		"max":[0,
		1,
		0]
	},
	{
		"bufferView":3,
		"type":"VEC2",
		"componentType":5126,
		"count":18,
		"byteOffset":24,
		"min":[0,
		0],
		"max":[1,
		1]
	},
	{
		"bufferView":4,
		"type":"SCALAR",
		"componentType":5123,
		"count":48,
		"byteOffset":0,
		"min":[0],
		"max":[23]
	},
	{
		"bufferView":5,
		"type":"VEC3",
		"componentType":5126,
		"count":24,
		"byteOffset":0,
		"min":[-9.979,
		0,
		0],
		"max":[9.979,
		0,
		373.134]
	},
	{
		"bufferView":5,
		"type":"VEC3",
		"componentType":5126,
		"count":24,
		"byteOffset":12,
		"min":[0,
		0.001,
		0],
		"max":[0,
		1,
		0]
	},
	{
		"bufferView":5,
		"type":"VEC2",
		"componentType":5126,
		"count":24,
		"byteOffset":24,
		"min":[0,
		0],
		"max":[1,
		1]
	},
	{
		"bufferView":6,
		"type":"SCALAR",
		"componentType":5123,
		"count":48,
		"byteOffset":0,
		"min":[0],
		"max":[17]
	},
	{
		"bufferView":7,
		"type":"VEC3",
		"componentType":5126,
		"count":18,
		"byteOffset":0,
		"min":[-9.979,
		0,
		0],
		"max":[9.979,
		0,
		373.134]
	},
	{
		"bufferView":7,
		"type":"VEC3",
		"componentType":5126,
		"count":18,
		"byteOffset":12,
		"min":[0,
		0,
		0],
		"max":[0,
		1,
		0]
	},
	{
		"bufferView":7,
		"type":"VEC2",
		"componentType":5126,
		"count":18,
		"byteOffset":24,
		"min":[0,
		0],
		"max":[1,
		1]
	},
	{
		"bufferView":8,
		"type":"SCALAR",
		"componentType":5123,
		"count":48,
		"byteOffset":0,
		"min":[0],
		"max":[19]
	},
	{
		"bufferView":9,
		"type":"VEC3",
		"componentType":5126,
		"count":20,
		"byteOffset":0,
		"min":[-9.979,
		0,
		0],
		"max":[9.979,
		0,
		373.134]
	},
	{
		"bufferView":9,
		"type":"VEC3",
		"componentType":5126,
		"count":20,
		"byteOffset":12,
		"min":[0,
		0,
		0],
		"max":[0,
		1,
		0]
	},
	{
		"bufferView":9,
		"type":"VEC2",
		"componentType":5126,
		"count":20,
		"byteOffset":24,
		"min":[0,
		0],
		"max":[1,
		1]
	},
	{
		"bufferView":10,
		"type":"SCALAR",
		"componentType":5123,
		"count":48,
		"byteOffset":0,
		"min":[0],
		"max":[19]
	},
	{
		"bufferView":11,
		"type":"VEC3",
		"componentType":5126,
		"count":20,
		"byteOffset":0,
		"min":[-9.979,
		0,
		0],
		"max":[9.979,
		0,
		373.134]
	},
	{
		"bufferView":11,
		"type":"VEC3",
		"componentType":5126,
		"count":20,
		"byteOffset":12,
		"min":[0,
		0,
		0],
		"max":[0,
		1,
		0]
	},
	{
		"bufferView":11,
		"type":"VEC2",
		"componentType":5126,
		"count":20,
		"byteOffset":24,
		"min":[0,
		0],
		"max":[1,
		1]
	},
	{
		"bufferView":12,
		"type":"SCALAR",
		"componentType":5123,
		"count":48,
		"byteOffset":0,
		"min":[0],
		"max":[17]
	},
	{
		"bufferView":13,
		"type":"VEC3",
		"componentType":5126,
		"count":18,
		"byteOffset":0,
		"min":[-9.979,
		0,
		0],
		"max":[9.979,
		0,
		373.134]
	},
	{
		"bufferView":13,
		"type":"VEC3",
		"componentType":5126,
		"count":18,
		"byteOffset":12,
		"min":[0,
		0,
		0],
		"max":[0,
		1,
		0]
	},
	{
		"bufferView":13,
		"type":"VEC2",
		"componentType":5126,
		"count":18,
		"byteOffset":24,
		"min":[0,
		0],
		"max":[1,
		1]
	}],
	"bufferViews":[{
		"buffer":0,
		"byteOffset":0,
		"byteLength":648,
		"target":34963
	},
	{
		"buffer":0,
		"byteOffset":648,
		"byteLength":4192,
		"target":34962,
		"byteStride":32
	},
	{
		"buffer":1,
		"byteOffset":0,
		"byteLength":96,
		"target":34963
	},
	{
		"buffer":1,
		"byteOffset":96,
		"byteLength":576,
		"target":34962,
		"byteStride":32
	},
	{
		"buffer":2,
		"byteOffset":0,
		"byteLength":96,
		"target":34963
	},
	{
		"buffer":2,
		"byteOffset":96,
		"byteLength":768,
		"target":34962,
		"byteStride":32
	},
	{
		"buffer":3,
		"byteOffset":0,
		"byteLength":96,
		"target":34963
	},
	{
		"buffer":3,
		"byteOffset":96,
		"byteLength":576,
		"target":34962,
		"byteStride":32
	},
	{
		"buffer":4,
		"byteOffset":0,
		"byteLength":96,
		"target":34963
	},
	{
		"buffer":4,
		"byteOffset":96,
		"byteLength":640,
		"target":34962,
		"byteStride":32
	},
	{
		"buffer":5,
		"byteOffset":0,
		"byteLength":96,
		"target":34963
	},
	{
		"buffer":5,
		"byteOffset":96,
		"byteLength":640,
		"target":34962,
		"byteStride":32
	},
	{
		"buffer":6,
		"byteOffset":0,
		"byteLength":96,
		"target":34963
	},
	{
		"buffer":6,
		"byteOffset":96,
		"byteLength":576,
		"target":34962,
		"byteStride":32
	}],
	"buffers":[{
		"uri":"data:application/octet-stream;base64,",
		"byteLength":4840
	},
	{
		"uri":"data:application/octet-stream;base64,",
		"byteLength":672
	},
	{
		"uri":"data:application/octet-stream;base64,",
		"byteLength":864
	},
	{
		"uri":"data:application/octet-stream;base64,",
		"byteLength":672
	},
	{
		"uri":"data:application/octet-stream;base64,",
		"byteLength":736
	},
	{
		"uri":"data:application/octet-stream;base64,",
		"byteLength":736
	},
	{
		"uri":"data:application/octet-stream;base64,",
		"byteLength":672
	}],
	"images":[{
		"uri":"data:image/png;base64,"
	},
	{
		"uri":"data:image/png;base64,"
	}],
	"samplers":[{
		"magFilter":9729,
		"minFilter":9729,
		"wrapS":10497,
		"wrapT":10497
	},
	{
		"magFilter":9729,
		"minFilter":9729,
		"wrapS":10497,
		"wrapT":10497
	},
	{
		"magFilter":9729,
		"minFilter":9729,
		"wrapS":10497,
		"wrapT":10497
	},
	{
		"magFilter":9729,
		"minFilter":9729,
		"wrapS":10497,
		"wrapT":10497
	},
	{
		"magFilter":9729,
		"minFilter":9729,
		"wrapS":10497,
		"wrapT":10497
	},
	{
		"magFilter":9729,
		"minFilter":9729,
		"wrapS":10497,
		"wrapT":10497
	},
	{
		"magFilter":9729,
		"minFilter":9729,
		"wrapS":10497,
		"wrapT":10497
	}],
	"textures":[{
		"sampler":0,
		"source":0
	},
	{
		"sampler":1,
		"source":1
	},
	{
		"sampler":2,
		"source":1
	},
	{
		"sampler":3,
		"source":1
	},
	{
		"sampler":4,
		"source":1
	},
	{
		"sampler":5,
		"source":1
	},
	{
		"sampler":6,
		"source":1
	}],
	"materials":[{
		"pbrMetallicRoughness":{
			"baseColorTexture":{
				"index":0
			},
			"baseColorFactor":[1,
			1,
			1,
			1],
			"metallicFactor":1,
			"roughnessFactor":1
		},
		"emissiveFactor":[0,
		0,
		0],
		"alphaMode":"BLEND",
		"doubleSided":true
	},
	{
		"pbrMetallicRoughness":{
			"baseColorTexture":{
				"index":1
			},
			"baseColorFactor":[1,
			1,
			1,
			1],
			"metallicFactor":1,
			"roughnessFactor":1
		},
		"emissiveFactor":[0,
		0.75,
		1],
		"alphaMode":"BLEND",
		"doubleSided":true
	},
	{
		"pbrMetallicRoughness":{
			"baseColorTexture":{
				"index":2
			},
			"baseColorFactor":[1,
			1,
			1,
			1],
			"metallicFactor":1,
			"roughnessFactor":1
		},
		"emissiveFactor":[0,
		0.75,
		1],
		"alphaMode":"BLEND",
		"doubleSided":true
	},
	{
		"pbrMetallicRoughness":{
			"baseColorTexture":{
				"index":3
			},
			"baseColorFactor":[1,
			1,
			1,
			1],
			"metallicFactor":1,
			"roughnessFactor":1
		},
		"emissiveFactor":[0,
		0.75,
		1],
		"alphaMode":"BLEND",
		"doubleSided":true
	},
	{
		"pbrMetallicRoughness":{
			"baseColorTexture":{
				"index":4
			},
			"baseColorFactor":[1,
			1,
			1,
			1],
			"metallicFactor":1,
			"roughnessFactor":1
		},
		"emissiveFactor":[0,
		0.75,
		1],
		"alphaMode":"BLEND",
		"doubleSided":true
	},
	{
		"pbrMetallicRoughness":{
			"baseColorTexture":{
				"index":5
			},
			"baseColorFactor":[1,
			1,
			1,
			1],
			"metallicFactor":1,
			"roughnessFactor":1
		},
		"emissiveFactor":[0,
		0.75,
		1],
		"alphaMode":"BLEND",
		"doubleSided":true
	},
	{
		"pbrMetallicRoughness":{
			"baseColorTexture":{
				"index":6
			},
			"baseColorFactor":[1,
			1,
			1,
			1],
			"metallicFactor":1,
			"roughnessFactor":1
		},
		"emissiveFactor":[0,
		0.75,
		1],
		"alphaMode":"BLEND",
		"doubleSided":true
	}]
}